<svg width="14" height="10" viewBox="0 0 14 10" fill="none" xmlns="http://www.w3.org/2000/svg">
<path d="M4.46648 9.47121C4.35347 9.47121 4.24753 9.45356 4.14865 9.41824C4.04977 9.38293 3.95796 9.32289 3.8732 9.23814L0.228798 5.59374C0.0734166 5.43835 -0.000742807 5.23707 0.00631999 4.98987C0.0133828 4.74267 0.094605 4.54138 0.249987 4.386C0.405368 4.23062 0.603127 4.15293 0.843262 4.15293C1.0834 4.15293 1.28116 4.23062 1.43654 4.386L4.46648 7.41594L11.6493 0.233072C11.8047 0.0776908 12.006 0 12.2532 0C12.5004 0 12.7017 0.0776908 12.8571 0.233072C13.0125 0.388454 13.0902 0.589744 13.0902 0.836942C13.0902 1.08414 13.0125 1.28543 12.8571 1.44081L5.05975 9.23814C4.975 9.32289 4.88318 9.38293 4.7843 9.41824C4.68542 9.45356 4.57948 9.47121 4.46648 9.47121Z" fill="#0CAD26"/>
</svg>
