<svg width="15" height="15" viewBox="0 0 15 15" fill="none" xmlns="http://www.w3.org/2000/svg">
<mask id="mask0_407_463" style="mask-type:alpha" maskUnits="userSpaceOnUse" x="0" y="0" width="15" height="15">
<rect width="15" height="15" fill="#D9D9D9"/>
</mask>
<g mask="url(#mask0_407_463)">
<path d="M7.5 8.375L4.4375 11.4375C4.32292 11.5521 4.17708 11.6094 4 11.6094C3.82292 11.6094 3.67708 11.5521 3.5625 11.4375C3.44792 11.3229 3.39062 11.1771 3.39062 11C3.39062 10.8229 3.44792 10.6771 3.5625 10.5625L6.625 7.5L3.5625 4.4375C3.44792 4.32292 3.39062 4.17708 3.39062 4C3.39062 3.82292 3.44792 3.67708 3.5625 3.5625C3.67708 3.44792 3.82292 3.39062 4 3.39062C4.17708 3.39062 4.32292 3.44792 4.4375 3.5625L7.5 6.625L10.5625 3.5625C10.6771 3.44792 10.8229 3.39062 11 3.39062C11.1771 3.39062 11.3229 3.44792 11.4375 3.5625C11.5521 3.67708 11.6094 3.82292 11.6094 4C11.6094 4.17708 11.5521 4.32292 11.4375 4.4375L8.375 7.5L11.4375 10.5625C11.5521 10.6771 11.6094 10.8229 11.6094 11C11.6094 11.1771 11.5521 11.3229 11.4375 11.4375C11.3229 11.5521 11.1771 11.6094 11 11.6094C10.8229 11.6094 10.6771 11.5521 10.5625 11.4375L7.5 8.375Z" fill="#AD0C0C"/>
</g>
</svg>
