<svg width="15" height="15" viewBox="0 0 15 15" fill="none" xmlns="http://www.w3.org/2000/svg">
<mask id="mask0_130_1058" style="mask-type:alpha" maskUnits="userSpaceOnUse" x="0" y="0" width="15" height="15">
<rect width="15" height="15" fill="#D9D9D9"/>
</mask>
<g mask="url(#mask0_130_1058)">
<path d="M4.46648 13.4712C4.35347 13.4712 4.24753 13.4536 4.14865 13.4182C4.04977 13.3829 3.95796 13.3229 3.8732 13.2381L0.228798 9.59374C0.0734166 9.43835 -0.000742807 9.23707 0.00631999 8.98987C0.0133828 8.74267 0.094605 8.54138 0.249987 8.386C0.405368 8.23062 0.603127 8.15293 0.843262 8.15293C1.0834 8.15293 1.28116 8.23062 1.43654 8.386L4.46648 11.4159L11.6493 4.23307C11.8047 4.07769 12.006 4 12.2532 4C12.5004 4 12.7017 4.07769 12.8571 4.23307C13.0125 4.38845 13.0902 4.58974 13.0902 4.83694C13.0902 5.08414 13.0125 5.28543 12.8571 5.44081L5.05975 13.2381C4.975 13.3229 4.88318 13.3829 4.7843 13.4182C4.68542 13.4536 4.57948 13.4712 4.46648 13.4712Z" fill="#0CAD26"/>
</g>
</svg>
