<svg width="12" height="3" viewBox="0 0 12 3" fill="none" xmlns="http://www.w3.org/2000/svg">
<path d="M6 2.33929C5.75714 2.33929 5.38971 2.33929 5.38971 2.33929H5.14286H0.857143C0.614286 2.33929 0.410572 2.25872 0.246 2.09757C0.0820002 1.93699 0 1.7378 0 1.5C0 1.2622 0.0820002 1.06273 0.246 0.901589C0.410572 0.741006 0.614286 0.660714 0.857143 0.660714H5.14286L5.5 0.660713H6L6.44531 0.660713L6.85714 0.660714H11.1429C11.3857 0.660714 11.5891 0.741006 11.7531 0.901589C11.9177 1.06273 12 1.2622 12 1.5C12 1.7378 11.9177 1.93699 11.7531 2.09757C11.5891 2.25872 11.3857 2.33929 11.1429 2.33929H6.85714H6.61114H6Z" fill="#0B0B0B"/>
</svg>
