<svg width="12" height="13" viewBox="0 0 12 13" fill="none" xmlns="http://www.w3.org/2000/svg">
<path d="M6 12.375C5.75714 12.375 5.55371 12.2944 5.38971 12.1333C5.22514 11.9727 5.14286 11.7735 5.14286 11.5357V7.33929H0.857143C0.614286 7.33929 0.410572 7.25871 0.246 7.09757C0.0820001 6.93699 0 6.7378 0 6.5C0 6.2622 0.0820001 6.06273 0.246 5.90159C0.410572 5.74101 0.614286 5.66071 0.857143 5.66071H5.14286V1.46429C5.14286 1.22649 5.22514 1.02702 5.38971 0.865875C5.55371 0.705292 5.75714 0.625 6 0.625C6.24286 0.625 6.44657 0.705292 6.61114 0.865875C6.77514 1.02702 6.85714 1.22649 6.85714 1.46429V5.66071H11.1429C11.3857 5.66071 11.5891 5.74101 11.7531 5.90159C11.9177 6.06273 12 6.2622 12 6.5C12 6.7378 11.9177 6.93699 11.7531 7.09757C11.5891 7.25871 11.3857 7.33929 11.1429 7.33929H6.85714V11.5357C6.85714 11.7735 6.77514 11.9727 6.61114 12.1333C6.44657 12.2944 6.24286 12.375 6 12.375Z" fill="#0B0B0B"/>
</svg>
