<svg width="88" height="15" viewBox="0 0 88 15" fill="none" xmlns="http://www.w3.org/2000/svg">
<path d="M7.51764 0.296384C7.71653 -0.0987951 8.28347 -0.0987942 8.48236 0.296384L10.5408 4.38622C10.6199 4.54353 10.7716 4.65224 10.9466 4.67719L15.5365 5.33118C15.9813 5.39457 16.1578 5.93959 15.8337 6.24934L12.5224 9.41441C12.3931 9.53804 12.334 9.71755 12.3647 9.89335L13.1478 14.3702C13.2243 14.8075 12.7643 15.1429 12.3681 14.9386L8.24821 12.8147C8.09257 12.7345 7.90743 12.7345 7.75179 12.8147L3.6319 14.9386C3.2357 15.1429 2.77574 14.8075 2.85223 14.3702L3.63527 9.89335C3.66601 9.71755 3.60691 9.53804 3.47756 9.41441L0.16628 6.24934C-0.157777 5.93959 0.0186826 5.39457 0.46355 5.33118L5.05336 4.67719C5.22842 4.65224 5.38007 4.54353 5.45924 4.38622L7.51764 0.296384Z" fill="#F4BB40"/>
<path d="M25.5176 0.296384C25.7165 -0.0987951 26.2835 -0.0987942 26.4824 0.296384L28.5408 4.38622C28.6199 4.54353 28.7716 4.65224 28.9466 4.67719L33.5365 5.33118C33.9813 5.39457 34.1578 5.93959 33.8337 6.24934L30.5224 9.41441C30.3931 9.53804 30.334 9.71755 30.3647 9.89335L31.1478 14.3702C31.2243 14.8075 30.7643 15.1429 30.3681 14.9386L26.2482 12.8147C26.0926 12.7345 25.9074 12.7345 25.7518 12.8147L21.6319 14.9386C21.2357 15.1429 20.7757 14.8075 20.8522 14.3702L21.6353 9.89335C21.666 9.71755 21.6069 9.53804 21.4776 9.41441L18.1663 6.24934C17.8422 5.93959 18.0187 5.39457 18.4635 5.33118L23.0534 4.67719C23.2284 4.65224 23.3801 4.54353 23.4592 4.38622L25.5176 0.296384Z" fill="#F4BB40"/>
<path d="M43.5176 0.296384C43.7165 -0.0987951 44.2835 -0.0987942 44.4824 0.296384L46.5408 4.38622C46.6199 4.54353 46.7716 4.65224 46.9466 4.67719L51.5365 5.33118C51.9813 5.39457 52.1578 5.93959 51.8337 6.24934L48.5224 9.41441C48.3931 9.53804 48.334 9.71755 48.3647 9.89335L49.1478 14.3702C49.2243 14.8075 48.7643 15.1429 48.3681 14.9386L44.2482 12.8147C44.0926 12.7345 43.9074 12.7345 43.7518 12.8147L39.6319 14.9386C39.2357 15.1429 38.7757 14.8075 38.8522 14.3702L39.6353 9.89335C39.666 9.71755 39.6069 9.53804 39.4776 9.41441L36.1663 6.24934C35.8422 5.93959 36.0187 5.39457 36.4635 5.33118L41.0534 4.67719C41.2284 4.65224 41.3801 4.54353 41.4592 4.38622L43.5176 0.296384Z" fill="#F4BB40"/>
<path d="M61.5176 0.296384C61.7165 -0.0987951 62.2835 -0.0987942 62.4824 0.296384L64.5408 4.38622C64.6199 4.54353 64.7716 4.65224 64.9466 4.67719L69.5365 5.33118C69.9813 5.39457 70.1578 5.93959 69.8337 6.24934L66.5224 9.41441C66.3931 9.53804 66.334 9.71755 66.3647 9.89335L67.1478 14.3702C67.2243 14.8075 66.7643 15.1429 66.3681 14.9386L62.2482 12.8147C62.0926 12.7345 61.9074 12.7345 61.7518 12.8147L57.6319 14.9386C57.2357 15.1429 56.7757 14.8075 56.8522 14.3702L57.6353 9.89335C57.666 9.71755 57.6069 9.53804 57.4776 9.41441L54.1663 6.24934C53.8422 5.93959 54.0187 5.39457 54.4635 5.33118L59.0534 4.67719C59.2284 4.65224 59.3801 4.54353 59.4592 4.38622L61.5176 0.296384Z" fill="#F4BB40"/>
<path d="M79.5176 0.296384C79.7165 -0.0987951 80.2835 -0.0987942 80.4824 0.296384L82.5408 4.38622C82.6199 4.54353 82.7716 4.65224 82.9466 4.67719L87.5365 5.33118C87.9813 5.39457 88.1578 5.93959 87.8337 6.24934L84.5224 9.41441C84.3931 9.53804 84.334 9.71755 84.3647 9.89335L85.1478 14.3702C85.2243 14.8075 84.7643 15.1429 84.3681 14.9386L80.2482 12.8147C80.0926 12.7345 79.9074 12.7345 79.7518 12.8147L75.6319 14.9386C75.2357 15.1429 74.7757 14.8075 74.8522 14.3702L75.6353 9.89335C75.666 9.71755 75.6069 9.53804 75.4776 9.41441L72.1663 6.24934C71.8422 5.93959 72.0187 5.39457 72.4635 5.33118L77.0534 4.67719C77.2284 4.65224 77.3801 4.54353 77.4592 4.38622L79.5176 0.296384Z" fill="#F4BB40"/>
</svg>
