<svg width="20" height="16" viewBox="0 0 20 16" fill="none" xmlns="http://www.w3.org/2000/svg">
<path d="M13.3 9.29999L9.7 5.69999C9.6 5.59999 9.52933 5.49166 9.488 5.37499C9.446 5.25833 9.425 5.13333 9.425 4.99999C9.425 4.86666 9.446 4.74166 9.488 4.62499C9.52933 4.50833 9.6 4.39999 9.7 4.29999L13.3 0.699994C13.5 0.499994 13.7333 0.399994 14 0.399994C14.2667 0.399994 14.5 0.499994 14.7 0.699994C14.9 0.899994 15 1.13733 15 1.41199C15 1.68733 14.9 1.92499 14.7 2.12499L12.825 3.99999H19C19.2833 3.99999 19.5207 4.09566 19.712 4.28699C19.904 4.47899 20 4.71666 20 4.99999C20 5.28333 19.904 5.52066 19.712 5.71199C19.5207 5.90399 19.2833 5.99999 19 5.99999H12.825L14.7 7.87499C14.9 8.07499 15 8.30833 15 8.57499C15 8.84166 14.9 9.07499 14.7 9.27499C14.5 9.47499 14.271 9.58333 14.013 9.59999C13.7543 9.61666 13.5167 9.51666 13.3 9.29999ZM5.3 15.275C5.5 15.475 5.73333 15.579 6 15.587C6.26667 15.5957 6.5 15.5 6.7 15.3L10.3 11.7C10.4 11.6 10.471 11.4917 10.513 11.375C10.5543 11.2583 10.575 11.1333 10.575 11C10.575 10.8667 10.5543 10.7417 10.513 10.625C10.471 10.5083 10.4 10.4 10.3 10.3L6.7 6.69999C6.5 6.49999 6.26667 6.39999 6 6.39999C5.73333 6.39999 5.5 6.49999 5.3 6.69999C5.1 6.89999 5 7.13733 5 7.41199C5 7.68733 5.1 7.92499 5.3 8.12499L7.175 9.99999H1C0.716667 9.99999 0.479333 10.0957 0.288 10.287C0.0960001 10.479 0 10.7167 0 11C0 11.2833 0.0960001 11.5207 0.288 11.712C0.479333 11.904 0.716667 12 1 12H7.175L5.3 13.875C5.1 14.075 5 14.3083 5 14.575C5 14.8417 5.1 15.075 5.3 15.275Z" fill="#0B0B0B"/>
</svg>
