<svg width="20" height="18" viewBox="0 0 20 18" fill="none" xmlns="http://www.w3.org/2000/svg">
<path d="M8.65 17.4142L6.925 15.8392C5.15833 14.2225 3.56267 12.6182 2.138 11.0262C0.712667 9.43483 0 7.68083 0 5.76416C0 4.19749 0.525 2.88916 1.575 1.83916C2.625 0.78916 3.93333 0.26416 5.5 0.26416C6.38333 0.26416 7.21667 0.451493 8 0.82616C8.78333 1.20149 9.45 1.71416 10 2.36416C10.55 1.71416 11.2167 1.20149 12 0.82616C12.7833 0.451493 13.6167 0.26416 14.5 0.26416C16.0667 0.26416 17.375 0.78916 18.425 1.83916C19.475 2.88916 20 4.19749 20 5.76416C20 7.68083 19.2917 9.43916 17.875 11.0392C16.4583 12.6392 14.85 14.2475 13.05 15.8642L11.35 17.4142C10.9667 17.7808 10.5167 17.9642 10 17.9642C9.48333 17.9642 9.03333 17.7808 8.65 17.4142ZM9.05 4.36416C8.56667 3.68083 8.05 3.15983 7.5 2.80116C6.95 2.44316 6.28333 2.26416 5.5 2.26416C4.5 2.26416 3.66667 2.59749 3 3.26416C2.33333 3.93083 2 4.76416 2 5.76416C2 6.63083 2.30833 7.55149 2.925 8.52616C3.54167 9.50149 4.27933 10.4475 5.138 11.3642C5.996 12.2808 6.87933 13.1392 7.788 13.9392C8.696 14.7392 9.43333 15.3975 10 15.9142C10.5667 15.3975 11.3043 14.7392 12.213 13.9392C13.121 13.1392 14.0043 12.2808 14.863 11.3642C15.721 10.4475 16.4583 9.50149 17.075 8.52616C17.6917 7.55149 18 6.63083 18 5.76416C18 4.76416 17.6667 3.93083 17 3.26416C16.3333 2.59749 15.5 2.26416 14.5 2.26416C13.7167 2.26416 13.05 2.44316 12.5 2.80116C11.95 3.15983 11.4333 3.68083 10.95 4.36416C10.8333 4.53083 10.6917 4.65583 10.525 4.73916C10.3583 4.82249 10.1833 4.86416 10 4.86416C9.81667 4.86416 9.64167 4.82249 9.475 4.73916C9.30833 4.65583 9.16667 4.53083 9.05 4.36416Z" fill="#0B0B0B"/>
</svg>
