<svg width="240" height="35" viewBox="0 0 240 35" fill="none" xmlns="http://www.w3.org/2000/svg">
<path d="M0 0H75.5C82.1274 0 87.5 5.37258 87.5 12V35H12C5.37258 35 0 29.6274 0 23V0Z" fill="white"/>
<path d="M16.9786 21.3908C16.9786 20.9824 16.8765 20.6455 16.6723 20.3801C16.4886 20.0943 16.2334 19.8595 15.9067 19.6758C15.58 19.4716 15.2023 19.298 14.7736 19.1551C14.3448 19.0122 13.8957 18.8693 13.4261 18.7264C12.834 18.563 12.2317 18.3895 11.6192 18.2058C11.0271 18.0016 10.4861 17.7362 9.99609 17.4095C9.52651 17.0624 9.13859 16.6235 8.83234 16.0926C8.52609 15.5618 8.37297 14.888 8.37297 14.0714C8.37297 12.4789 8.84255 11.2947 9.78172 10.5189C10.7413 9.74304 12.0786 9.35513 13.7936 9.35513C15.0798 9.35513 16.1619 9.47763 17.0398 9.72263C17.9178 9.96763 18.6834 10.233 19.3367 10.5189L18.663 12.9076C18.1117 12.6422 17.4482 12.387 16.6723 12.142C15.9169 11.8766 15.0798 11.7439 14.1611 11.7439C13.1607 11.7439 12.4155 11.9072 11.9255 12.2339C11.4355 12.5605 11.1905 13.1526 11.1905 14.0101C11.1905 14.3572 11.2823 14.6533 11.4661 14.8983C11.6498 15.1228 11.8948 15.327 12.2011 15.5108C12.5073 15.6741 12.8646 15.8272 13.273 15.9701C13.6813 16.0926 14.1101 16.2151 14.5592 16.3376C15.1717 16.501 15.7842 16.6949 16.3967 16.9195C17.0092 17.1237 17.5707 17.4095 18.0811 17.777C18.5915 18.1241 18.9998 18.5733 19.3061 19.1245C19.6328 19.6758 19.7961 20.3699 19.7961 21.207C19.7961 22.7178 19.2857 23.953 18.2648 24.9126C17.244 25.8518 15.7128 26.3214 13.6711 26.3214C12.3644 26.3214 11.2211 26.1887 10.2411 25.9233C9.28151 25.6578 8.47505 25.3516 7.82172 25.0045L8.61797 22.5545C9.18963 22.8608 9.92463 23.167 10.823 23.4733C11.7213 23.7795 12.6298 23.9326 13.5486 23.9326C14.549 23.9326 15.3657 23.7591 15.9986 23.412C16.6519 23.0445 16.9786 22.3708 16.9786 21.3908Z" fill="#0B0B0B"/>
<path d="M22.1856 9.8145H24.9112V6.56825L27.7287 5.83325V9.8145H32.5674V12.2033H27.7287V20.4108C27.7287 21.697 27.892 22.6055 28.2187 23.1364C28.5454 23.6672 29.1068 23.9326 29.9031 23.9326C30.4135 23.9326 30.8729 23.8816 31.2812 23.7795C31.7099 23.657 32.1897 23.5039 32.7206 23.3201L33.3637 25.3108C32.7104 25.5966 32.006 25.8314 31.2506 26.0151C30.5156 26.2193 29.7193 26.3214 28.8618 26.3214C27.4326 26.3214 26.4118 25.9335 25.7993 25.1576C25.2072 24.3818 24.9112 23.116 24.9112 21.3601V12.2033H22.1856V9.8145Z" fill="#0B0B0B"/>
<path d="M35.3706 17.8689C35.3706 16.5418 35.5441 15.3576 35.8912 14.3164C36.2383 13.2547 36.7487 12.3564 37.4225 11.6214C38.0962 10.8864 38.9129 10.3249 39.8725 9.937C40.8525 9.54909 41.9652 9.35513 43.2106 9.35513C44.5172 9.35513 45.6606 9.5695 46.6406 9.99825C47.6206 10.427 48.4372 11.0293 49.0906 11.8051C49.7439 12.5605 50.2237 13.4589 50.53 14.5001C50.8566 15.521 51.02 16.6439 51.02 17.8689C51.02 19.1755 50.8362 20.3495 50.4687 21.3908C50.1216 22.432 49.6112 23.3201 48.9375 24.0551C48.2841 24.7901 47.4675 25.3516 46.4875 25.7395C45.5279 26.1274 44.4356 26.3214 43.2106 26.3214C41.8631 26.3214 40.6993 26.107 39.7193 25.6783C38.7393 25.2495 37.9227 24.6574 37.2693 23.902C36.6364 23.1466 36.1566 22.2585 35.83 21.2376C35.5237 20.1964 35.3706 19.0735 35.3706 17.8689ZM38.3718 17.8689C38.3718 18.6243 38.4535 19.3695 38.6168 20.1045C38.8006 20.8191 39.0864 21.4622 39.4743 22.0339C39.8622 22.6055 40.3625 23.0649 40.975 23.412C41.5875 23.7591 42.3429 23.9326 43.2412 23.9326C46.4262 23.9326 48.0187 21.9114 48.0187 17.8689C48.0187 17.0726 47.9268 16.307 47.7431 15.572C47.5797 14.837 47.3041 14.1939 46.9162 13.6426C46.5487 13.071 46.0587 12.6116 45.4462 12.2645C44.8337 11.9174 44.0987 11.7439 43.2412 11.7439C41.6487 11.7439 40.4339 12.2543 39.5968 13.2751C38.7802 14.2755 38.3718 15.8068 38.3718 17.8689Z" fill="#0B0B0B"/>
<path d="M63.9394 12.4789C63.5923 12.3768 63.2554 12.2849 62.9288 12.2033C62.6021 12.1216 62.2959 12.0808 62.01 12.0808C60.9279 12.0808 60.0807 12.3564 59.4681 12.9076C58.8761 13.4589 58.5086 14.153 58.3656 14.9901V25.8926H55.5481V9.8145H57.5081L58.0594 11.9583H58.335C58.8046 11.162 59.3456 10.5495 59.9581 10.1208C60.5911 9.67159 61.3771 9.447 62.3163 9.447C62.6021 9.447 62.939 9.47763 63.3269 9.53888C63.7148 9.57971 64.1027 9.66138 64.4907 9.78388L63.9394 12.4789Z" fill="#0B0B0B"/>
<path d="M80.2589 24.5758C79.5443 25.1066 78.6562 25.5353 77.5946 25.862C76.5329 26.1683 75.3793 26.3214 74.1339 26.3214C72.7864 26.3214 71.6125 26.1274 70.6121 25.7395C69.6321 25.3312 68.8256 24.7595 68.1927 24.0245C67.5598 23.2895 67.0902 22.4014 66.7839 21.3601C66.4777 20.3189 66.3246 19.1551 66.3246 17.8689C66.3246 15.1126 66.9983 13.0097 68.3458 11.5601C69.7137 10.0901 71.6533 9.35513 74.1646 9.35513C74.9608 9.35513 75.7571 9.447 76.5533 9.63075C77.3496 9.79409 78.0641 10.1208 78.6971 10.6108C79.33 11.0803 79.8404 11.7337 80.2283 12.5708C80.6366 13.4078 80.8408 14.5001 80.8408 15.8476C80.8408 16.1743 80.8306 16.552 80.8102 16.9808C80.7898 17.4095 80.7489 17.828 80.6877 18.2364H69.2033C69.2441 20.1147 69.6933 21.5337 70.5508 22.4933C71.4083 23.4528 72.8681 23.9326 74.9302 23.9326C75.7877 23.9326 76.6044 23.7897 77.3802 23.5039C78.156 23.1976 78.7583 22.8403 79.1871 22.432L80.2589 24.5758ZM78.1458 16.2151C78.1866 14.5818 77.8498 13.4283 77.1352 12.7545C76.441 12.0808 75.461 11.7439 74.1952 11.7439C72.766 11.7439 71.6329 12.0808 70.7958 12.7545C69.9587 13.4283 69.4687 14.5818 69.3258 16.2151H78.1458Z" fill="#0B0B0B"/>
<path d="M110.542 10.6456H116.298V32.2289H110.542V10.6456ZM109.679 6.00008C109.679 5.12304 109.994 4.39675 110.624 3.82119C111.255 3.21823 112.145 2.91675 113.296 2.91675C114.475 2.91675 115.407 3.21823 116.092 3.82119C116.777 4.42415 117.12 5.15045 117.12 6.00008C117.12 6.79489 116.777 7.48008 116.092 8.05563C115.407 8.63119 114.475 8.91896 113.296 8.91896C112.145 8.91896 111.255 8.63119 110.624 8.05563C109.994 7.48008 109.679 6.79489 109.679 6.00008Z" fill="white"/>
<path d="M136.376 32.2289V20.9645C136.376 18.8815 136.156 17.3878 135.718 16.4834C135.279 15.579 134.375 15.1267 133.004 15.1267C131.853 15.1267 130.935 15.4145 130.25 15.9901C129.565 16.5382 129.03 17.2645 128.647 18.169V32.2289H122.891V10.6456H127.331L127.989 13.6467H128.523C128.88 13.1808 129.291 12.7286 129.757 12.2901C130.223 11.8516 130.73 11.4679 131.278 11.139C131.853 10.8101 132.484 10.5497 133.169 10.3579C133.881 10.1386 134.676 10.029 135.553 10.029C137.006 10.029 138.212 10.3579 139.171 11.0156C140.158 11.646 140.939 12.7149 141.514 14.2223C142.309 12.9067 143.268 11.879 144.392 11.139C145.543 10.399 146.873 10.029 148.38 10.029C149.696 10.029 150.806 10.1797 151.71 10.4812C152.642 10.7827 153.396 11.3034 153.971 12.0434C154.547 12.7834 154.958 13.7838 155.204 15.0445C155.478 16.3053 155.616 17.8812 155.616 19.7723V32.2289H149.86V20.6767C149.86 19.7723 149.819 18.9775 149.737 18.2923C149.654 17.6071 149.49 17.0315 149.243 16.5656C148.997 16.0723 148.64 15.716 148.174 15.4967C147.736 15.2501 147.147 15.1267 146.407 15.1267C145.256 15.1267 144.324 15.4282 143.611 16.0312C142.926 16.6067 142.433 17.4153 142.131 18.4567V32.2289H136.376Z" fill="white"/>
<path d="M180.012 30.2556C179.08 30.9682 177.806 31.5849 176.189 32.1056C174.599 32.5989 172.886 32.8456 171.05 32.8456C167.35 32.8456 164.636 31.8315 162.91 29.8034C161.183 27.7752 160.32 24.9934 160.32 21.4578C160.32 17.703 161.293 14.8664 163.239 12.9479C165.185 11.0019 167.925 10.029 171.461 10.029C172.612 10.029 173.749 10.1797 174.873 10.4812C175.997 10.7553 176.997 11.2349 177.874 11.9201C178.751 12.5779 179.45 13.4823 179.971 14.6334C180.519 15.7571 180.793 17.1549 180.793 18.8267C180.793 19.4023 180.752 20.0327 180.67 20.7178C180.615 21.403 180.505 22.1156 180.341 22.8556H165.952C166.089 24.7193 166.624 26.1034 167.555 27.0078C168.515 27.8849 170.063 28.3234 172.201 28.3234C173.489 28.3234 174.64 28.1452 175.654 27.7889C176.696 27.4052 177.491 27.0215 178.039 26.6378L180.012 30.2556ZM171.379 14.5512C169.679 14.5512 168.419 15.0171 167.596 15.949C166.774 16.8534 166.295 18.0182 166.158 19.4434H175.449C175.558 17.936 175.284 16.7438 174.626 15.8667C173.969 14.9897 172.886 14.5512 171.379 14.5512Z" fill="white"/>
<path d="M183.332 10.6456H186.621V7.68563L192.376 6.16452V10.6456H198.173V15.4556H192.376V22.9378C192.376 24.6645 192.541 25.9115 192.87 26.6789C193.226 27.4189 193.911 27.7889 194.925 27.7889C195.555 27.7889 196.09 27.7478 196.528 27.6656C196.967 27.556 197.433 27.3915 197.926 27.1723L199.118 31.4889C198.241 31.8726 197.227 32.2015 196.076 32.4756C194.952 32.7497 193.856 32.8867 192.787 32.8867C190.65 32.8867 189.087 32.366 188.101 31.3245C187.114 30.2556 186.621 28.5564 186.621 26.2267V15.4556H183.332V10.6456Z" fill="white"/>
<path d="M215.328 15.9078C214.506 15.6338 213.684 15.4967 212.862 15.4967C211.656 15.4967 210.655 15.7845 209.861 16.3601C209.093 16.9356 208.586 17.6619 208.339 18.539V32.2289H202.584V10.6456H207.106L207.723 13.6467H208.257C208.805 12.523 209.532 11.6597 210.436 11.0567C211.368 10.4538 212.423 10.1523 213.602 10.1523C214.342 10.1523 215.191 10.303 216.151 10.6045L215.328 15.9078Z" fill="white"/>
<path d="M218.052 21.4578C218.052 17.8949 218.998 15.0993 220.889 13.0712C222.78 11.043 225.479 10.029 228.988 10.029C230.824 10.029 232.427 10.3167 233.798 10.8923C235.168 11.4679 236.305 12.2764 237.21 13.3179C238.114 14.3319 238.786 15.5378 239.224 16.9356C239.69 18.306 239.923 19.8134 239.923 21.4578C239.923 23.2119 239.676 24.8015 239.183 26.2267C238.69 27.6245 237.977 28.8167 237.045 29.8034C236.113 30.7901 234.962 31.5438 233.592 32.0645C232.249 32.5852 230.714 32.8456 228.988 32.8456C227.124 32.8456 225.507 32.5578 224.136 31.9823C222.766 31.4067 221.629 30.6119 220.724 29.5978C219.82 28.5564 219.148 27.3504 218.71 25.9801C218.271 24.5823 218.052 23.0749 218.052 21.4578ZM223.972 21.4578C223.972 22.3623 224.068 23.2119 224.26 24.0067C224.452 24.8015 224.739 25.5004 225.123 26.1034C225.534 26.6789 226.055 27.1449 226.685 27.5012C227.316 27.8575 228.083 28.0356 228.988 28.0356C232.331 28.0356 234.003 25.843 234.003 21.4578C234.003 20.4986 233.907 19.6215 233.715 18.8267C233.551 18.0045 233.263 17.3056 232.852 16.7301C232.468 16.1271 231.948 15.6612 231.29 15.3323C230.659 15.0034 229.892 14.839 228.988 14.839C227.425 14.839 226.192 15.3597 225.288 16.4012C224.41 17.4427 223.972 19.1282 223.972 21.4578Z" fill="white"/>
<path d="M95.583 14.1462C95.583 13.372 95.8341 12.7653 96.3363 12.3259C96.8384 11.8864 97.4975 11.6667 98.3136 11.6667C99.1505 11.6667 99.8201 11.8864 100.322 12.3259C100.824 12.7653 101.076 13.372 101.076 14.1462C101.076 14.8786 100.824 15.4749 100.322 15.9352C99.8201 16.3956 99.1505 16.6257 98.3136 16.6257C97.4975 16.6257 96.8384 16.3956 96.3363 15.9352C95.8341 15.4749 95.583 14.8786 95.583 14.1462ZM95.583 25.3824C95.583 24.6082 95.8341 24.0014 96.3363 23.562C96.8384 23.1226 97.4975 22.9029 98.3136 22.9029C99.1505 22.9029 99.8201 23.1226 100.322 23.562C100.824 24.0014 101.076 24.6082 101.076 25.3824C101.076 26.1147 100.824 26.711 100.322 27.1714C99.8201 27.6317 99.1505 27.8619 98.3136 27.8619C97.4975 27.8619 96.8384 27.6317 96.3363 27.1714C95.8341 26.711 95.583 26.1147 95.583 25.3824Z" fill="white"/>
</svg>
