<svg width="29" height="20" viewBox="0 0 29 20" fill="none" xmlns="http://www.w3.org/2000/svg">
<path d="M27.7938 3.12301C27.4673 1.89374 26.5055 0.925641 25.284 0.597094C23.0704 0 14.1934 0 14.1934 0C14.1934 0 5.31663 0 3.10293 0.597094C1.8814 0.925641 0.919351 1.89374 0.593102 3.12301C0 5.35111 0 10 0 10C0 10 0 14.6487 0.593102 16.877C0.919351 18.1064 1.8814 19.0742 3.10281 19.4031C5.31651 20 14.1933 20 14.1933 20C14.1933 20 23.0703 20 25.2838 19.4031C26.5054 19.0744 27.4672 18.1064 27.7937 16.8771C28.3869 14.6488 28.3869 10.0001 28.3869 10.0001C28.3869 10.0001 28.3869 5.35123 27.7937 3.12313" fill="#FF0000"/>
<path d="M11.2908 14.2206L18.7101 10.0001L11.2908 5.77905V14.2206Z" fill="white"/>
</svg>
